
<svg
  version="1.0"
  xmlns="http://www.w3.org/2000/svg"
  xmlns:xlink="http://www.w3.org/1999/xlink"
  width="2400"
  height="1800"
>
  
  <rect
    x="0"
    y="0"
    width="100%"
    height="100%"
    fill="#ffffff"
    fill-opacity="1"
  ></rect>
  <svg
    version="1.0"
    xmlns="http://www.w3.org/2000/svg"
    xmlns:xlink="http://www.w3.org/1999/xlink"
    x="0"
    y="0"
    width="2400"
    height="1800"
    viewBox="0 0 340.000000 250.000000"
    preserveAspectRatio="xMidYMid meet"
    color-interpolation-filters="sRGB"
  >
    <defs><linearGradient id="92" x1="0%" y1="0%" x2="100%" y2="0%"><stop offset="0%" stop-color="#fa71cd"/> <stop offset="100%" stop-color="#9b59b6"/></linearGradient><linearGradient id="93" x1="0%" y1="0%" x2="100%" y2="0%"><stop offset="0%" stop-color="#f9d423"/> <stop offset="100%" stop-color="#f83600"/></linearGradient><linearGradient id="94" x1="0%" y1="0%" x2="100%" y2="0%"><stop offset="0%" stop-color="#0064d2"/> <stop offset="100%" stop-color="#1cb0f6"/></linearGradient><linearGradient id="95" x1="0%" y1="0%" x2="100%" y2="0%"><stop offset="0%" stop-color="#f00978"/> <stop offset="100%" stop-color="#3f51b1"/></linearGradient><linearGradient id="96" x1="0%" y1="0%" x2="100%" y2="0%"><stop offset="0%" stop-color="#7873f5"/> <stop offset="100%" stop-color="#ec77ab"/></linearGradient><linearGradient id="97" x1="0%" y1="0%" x2="100%" y2="0%"><stop offset="0%" stop-color="#f9d423"/> <stop offset="100%" stop-color="#e14fad"/></linearGradient><linearGradient id="98" x1="0%" y1="0%" x2="100%" y2="0%"><stop offset="0%" stop-color="#009efd"/> <stop offset="100%" stop-color="#2af598"/></linearGradient><linearGradient id="99" x1="0%" y1="0%" x2="100%" y2="0%"><stop offset="0%" stop-color="#ffcc00"/> <stop offset="100%" stop-color="#00b140"/></linearGradient><linearGradient id="100" x1="0%" y1="0%" x2="100%" y2="0%"><stop offset="0%" stop-color="#d51007"/> <stop offset="100%" stop-color="#ff8177"/></linearGradient><linearGradient id="102" x1="0%" y1="0%" x2="100%" y2="0%"><stop offset="0%" stop-color="#a2b6df"/> <stop offset="100%" stop-color="#0c3483"/></linearGradient><linearGradient id="103" x1="0%" y1="0%" x2="100%" y2="0%"><stop offset="0%" stop-color="#7ac5d8"/> <stop offset="100%" stop-color="#eea2a2"/></linearGradient><linearGradient id="104" x1="0%" y1="0%" x2="100%" y2="0%"><stop offset="0%" stop-color="#00ecbc"/> <stop offset="100%" stop-color="#007adf"/></linearGradient><linearGradient id="105" x1="0%" y1="0%" x2="100%" y2="0%"><stop offset="0%" stop-color="#b88746"/> <stop offset="100%" stop-color="#fdf5a6"/></linearGradient></defs> <g fill="#ff0844" class="iconlinesvg-g iconlinesvg" transform="translate(74.42153930664062,105.01773071289062)"><g class="tp-name" transform="translate(0,0)"><g transform="translate(0, 0)"><g><g class="imagesvg"><g><rect fill="#ff0844" fill-opacity="0" stroke-width="2" x="0" y="0" width="25.193776475711623" height="25.80853579843023" class="image-rect"/> <svg x="0" y="0" width="25.193776475711623" height="25.80853579843023" filtersec="colorsb9291133310" class="image-svg-svg primary" style="overflow: visible;"><svg xmlns="http://www.w3.org/2000/svg" viewBox="0 -0.0026312884874641895 56.90403747558594 58.292633056640625"><g><g><path d="M6.6 22C9.54 11.2 18.53 5.15 28.74 5.15c11.93 0 20.44 6 22.45 16.84h5.31C54.17 6.82 42.06 0 28.74 0A28.23 28.23 0 0 0 .82 22z" fill="#0a0619"/><path d="M.09 26.91C0 27.67 0 28.43 0 29.2s0 1.8.1 2.64h56.59a43.81 43.81 0 0 0 .21-4.92z" fill="#ff0844"/><path d="M28.74 52.79c-10.15 0-19.17-5.8-22.11-16H.83c3.06 13.45 14.37 21.5 27.91 21.5 9 0 18.9-3.66 24.39-10.88l-4-3.21c-4.24 5.62-12.94 8.59-20.39 8.59z" fill="#0a0619"/></g></g></svg></svg> </g></g></g></g><g transform="translate(29, 1.3811909761381909)"><g fill="#ff0844" transform="scale(1)"><path d="M2.12-22.77L6.43-22.77L6.43 0L2.12 0L2.12-22.77Z" transform="translate(-2.1230769230769235, 22.769230769230774)"/></g></g><g transform="translate(37, 1.3811909761381909)"><g fill="#ff0844" transform="scale(1)"><path d="M17.97-8.89Q17.97-7.97 17.85-7.23L17.85-7.23L5.38-7.23Q5.54-5.38 6.68-4.34Q7.82-3.29 9.48-3.29L9.48-3.29Q11.88-3.29 12.89-5.35L12.89-5.35L17.54-5.35Q16.80-2.89 14.71-1.31Q12.62 0.28 9.57 0.28L9.57 0.28Q7.11 0.28 5.15-0.82Q3.20-1.91 2.11-3.91Q1.02-5.91 1.02-8.52L1.02-8.52Q1.02-11.17 2.09-13.17Q3.17-15.17 5.11-16.25Q7.05-17.32 9.57-17.32L9.57-17.32Q12-17.32 13.92-16.28Q15.85-15.23 16.91-13.31Q17.97-11.38 17.97-8.89L17.97-8.89ZM5.42-10.12L13.51-10.12Q13.48-11.78 12.31-12.78Q11.14-13.78 9.45-13.78L9.45-13.78Q7.85-13.78 6.75-12.82Q5.66-11.85 5.42-10.12L5.42-10.12Z" transform="translate(-1.0153846153846153, 22.769230769230774)"/></g></g><g transform="translate(57, 1.3811909761381909)"><g fill="#ff0844" transform="scale(1)"><path d="M23.29-17.29Q26.43-17.29 28.35-15.37Q30.28-13.45 30.28-10L30.28-10L30.28 0L25.97 0L25.97-9.42Q25.97-11.42 24.95-12.48Q23.94-13.54 22.18-13.54L22.18-13.54Q20.43-13.54 19.40-12.48Q18.37-11.42 18.37-9.42L18.37-9.42L18.37 0L14.06 0L14.06-9.42Q14.06-11.42 13.05-12.48Q12.03-13.54 10.28-13.54L10.28-13.54Q8.49-13.54 7.46-12.48Q6.43-11.42 6.43-9.42L6.43-9.42L6.43 0L2.12 0L2.12-17.05L6.43-17.05L6.43-14.98Q7.26-16.06 8.57-16.68Q9.88-17.29 11.45-17.29L11.45-17.29Q13.45-17.29 15.02-16.45Q16.58-15.60 17.45-14.03L17.45-14.03Q18.28-15.51 19.86-16.40Q21.45-17.29 23.29-17.29L23.29-17.29Z" transform="translate(-2.123076923076923, 22.769230769230774)"/></g></g><g transform="translate(89, 1.3811909761381909)"><g fill="#ff0844" transform="scale(1)"><path d="M17.97-8.89Q17.97-7.97 17.85-7.23L17.85-7.23L5.38-7.23Q5.54-5.38 6.68-4.34Q7.82-3.29 9.48-3.29L9.48-3.29Q11.88-3.29 12.89-5.35L12.89-5.35L17.54-5.35Q16.80-2.89 14.71-1.31Q12.62 0.28 9.57 0.28L9.57 0.28Q7.11 0.28 5.15-0.82Q3.20-1.91 2.11-3.91Q1.02-5.91 1.02-8.52L1.02-8.52Q1.02-11.17 2.09-13.17Q3.17-15.17 5.11-16.25Q7.05-17.32 9.57-17.32L9.57-17.32Q12-17.32 13.92-16.28Q15.85-15.23 16.91-13.31Q17.97-11.38 17.97-8.89L17.97-8.89ZM5.42-10.12L13.51-10.12Q13.48-11.78 12.31-12.78Q11.14-13.78 9.45-13.78L9.45-13.78Q7.85-13.78 6.75-12.82Q5.66-11.85 5.42-10.12L5.42-10.12Z" transform="translate(-1.0153846153846153, 22.769230769230774)"/></g></g><g transform="translate(109, 1.3811909761381909)"><g fill="#ff0844" transform="scale(1)"><path d="M11.57-17.29Q14.62-17.29 16.49-15.37Q18.37-13.45 18.37-10L18.37-10L18.37 0L14.06 0L14.06-9.42Q14.06-11.45 13.05-12.54Q12.03-13.63 10.28-13.63L10.28-13.63Q8.49-13.63 7.46-12.54Q6.43-11.45 6.43-9.42L6.43-9.42L6.43 0L2.12 0L2.12-17.05L6.43-17.05L6.43-14.92Q7.29-16.03 8.63-16.66Q9.97-17.29 11.57-17.29L11.57-17.29Z" transform="translate(-2.123076923076923, 22.769230769230774)"/></g></g><g transform="translate(129, 1.3811909761381909)"><g fill="#ff0844" transform="scale(1)"><path d="M10.95-13.51L7.14-13.51L7.14-5.26Q7.14-4.40 7.55-4.02Q7.97-3.63 8.95-3.63L8.95-3.63L10.95-3.63L10.95 0L8.25 0Q2.80 0 2.80-5.29L2.80-5.29L2.80-13.51L0.77-13.51L0.77-17.05L2.80-17.05L2.80-21.26L7.14-21.26L7.14-17.05L10.95-17.05L10.95-13.51Z" transform="translate(-0.7692307692307692, 22.769230769230774)"/></g></g><g transform="translate(143, 1.3811909761381909)"><g fill="#ff0844" transform="scale(1)"><path d="M13.88-17.05L18.22-17.05L18.22 0L13.88 0L13.88-2.15Q13.05-1.05 11.71-0.42Q10.37 0.22 8.80 0.22L8.80 0.22Q6.80 0.22 5.26-0.63Q3.72-1.48 2.85-3.12Q1.97-4.77 1.97-7.05L1.97-7.05L1.97-17.05L6.28-17.05L6.28-7.66Q6.28-5.63 7.29-4.54Q8.31-3.45 10.06-3.45L10.06-3.45Q11.85-3.45 12.86-4.54Q13.88-5.63 13.88-7.66L13.88-7.66L13.88-17.05Z" transform="translate(-1.9692307692307693, 22.769230769230774)"/></g></g><g transform="translate(163, 1.3811909761381909)"><g fill="#ff0844" transform="scale(1)"><path d="M23.29-17.29Q26.43-17.29 28.35-15.37Q30.28-13.45 30.28-10L30.28-10L30.28 0L25.97 0L25.97-9.42Q25.97-11.42 24.95-12.48Q23.94-13.54 22.18-13.54L22.18-13.54Q20.43-13.54 19.40-12.48Q18.37-11.42 18.37-9.42L18.37-9.42L18.37 0L14.06 0L14.06-9.42Q14.06-11.42 13.05-12.48Q12.03-13.54 10.28-13.54L10.28-13.54Q8.49-13.54 7.46-12.48Q6.43-11.42 6.43-9.42L6.43-9.42L6.43 0L2.12 0L2.12-17.05L6.43-17.05L6.43-14.98Q7.26-16.06 8.57-16.68Q9.88-17.29 11.45-17.29L11.45-17.29Q13.45-17.29 15.02-16.45Q16.58-15.60 17.45-14.03L17.45-14.03Q18.28-15.51 19.86-16.40Q21.45-17.29 23.29-17.29L23.29-17.29Z" transform="translate(-2.123076923076923, 22.769230769230774)"/></g></g></g> <g fill-rule="" class="tp-slogan" fill="#0a0619" transform="translate(5,31.80853843688965)"><rect x="0" height="1" y="3.580000877380371" width="63.01346206665039"/> <rect height="1" y="3.580000877380371" width="63.01346206665039" x="118.14345932006836"/> <g transform="translate(66.01346206665039,0)"><g transform="scale(1)"><path d="M1.08-7.87L1.08 0L5.74 0L5.74-0.85L2.08-0.85L2.08-3.71L5.06-3.71L5.06-4.56L2.08-4.56L2.08-7.03L5.62-7.03L5.62-7.87ZM7.40-7.87L7.40 0L8.35 0L8.35-4.12C8.35-4.53 8.34-4.95 8.31-5.36C8.28-5.77 8.25-6.18 8.22-6.58L8.27-6.58L9.12-4.96L11.98 0L13.01 0L13.01-7.87L12.06-7.87L12.06-3.80C12.06-3.39 12.07-2.97 12.10-2.54C12.13-2.11 12.16-1.70 12.18-1.30L12.13-1.30L11.28-2.93L8.44-7.87ZM15.17-7.87L15.17 0L19.82 0L19.82-0.85L16.16-0.85L16.16-3.71L19.15-3.71L19.15-4.56L16.16-4.56L16.16-7.03L19.70-7.03L19.70-7.87ZM22.49-4.14L22.49-7.07L23.81-7.07C24.42-7.07 24.90-6.96 25.22-6.76C25.55-6.55 25.72-6.18 25.72-5.66C25.72-5.15 25.55-4.77 25.22-4.52C24.90-4.27 24.42-4.14 23.81-4.14ZM25.81 0L26.94 0L24.95-3.43C25.48-3.57 25.91-3.82 26.23-4.19C26.55-4.56 26.71-5.05 26.71-5.66C26.71-6.07 26.64-6.42 26.51-6.70C26.37-6.98 26.18-7.20 25.94-7.38C25.69-7.56 25.40-7.68 25.06-7.76C24.72-7.83 24.35-7.87 23.95-7.87L21.49-7.87L21.49 0L22.49 0L22.49-3.32L23.92-3.32ZM28.01-3.94C28.01-3.30 28.10-2.72 28.27-2.21C28.45-1.71 28.69-1.28 29.00-0.93C29.32-0.58 29.69-0.32 30.12-0.13C30.55 0.05 31.03 0.14 31.55 0.14C32.08 0.14 32.55 0.06 32.97-0.11C33.39-0.29 33.73-0.50 33.98-0.77L33.98-4.08L31.40-4.08L31.40-3.25L33.07-3.25L33.07-1.20C32.91-1.06 32.71-0.94 32.45-0.86C32.20-0.77 31.94-0.73 31.66-0.73C31.23-0.73 30.86-0.81 30.53-0.96C30.21-1.11 29.94-1.33 29.72-1.61C29.50-1.89 29.33-2.23 29.21-2.62C29.10-3.02 29.04-3.46 29.04-3.96C29.04-4.45 29.10-4.89 29.23-5.28C29.35-5.67 29.52-6.01 29.75-6.28C29.97-6.56 30.24-6.77 30.56-6.92C30.88-7.07 31.24-7.14 31.64-7.14C32.04-7.14 32.37-7.07 32.63-6.93C32.89-6.79 33.12-6.62 33.32-6.41L33.89-7.04C33.66-7.28 33.36-7.51 32.99-7.71C32.63-7.91 32.18-8.02 31.63-8.02C31.10-8.02 30.62-7.92 30.18-7.73C29.74-7.55 29.36-7.28 29.03-6.92C28.71-6.57 28.46-6.14 28.28-5.64C28.10-5.14 28.01-4.57 28.01-3.94ZM35.87-7.87L35.87 0L36.86 0L36.86-7.87ZM39.02-7.87L39.02 0L43.68 0L43.68-0.85L40.02-0.85L40.02-3.71L43.01-3.71L43.01-4.56L40.02-4.56L40.02-7.03L43.56-7.03L43.56-7.87ZM45.37-1.72L44.77-1.02C45.12-0.66 45.52-0.38 46.00-0.17C46.47 0.04 46.98 0.14 47.53 0.14C47.95 0.14 48.32 0.09 48.65-0.03C48.98-0.15 49.26-0.31 49.49-0.51C49.72-0.71 49.90-0.95 50.02-1.22C50.15-1.50 50.21-1.79 50.21-2.10C50.21-2.39 50.17-2.64 50.08-2.86C50.00-3.08 49.88-3.27 49.74-3.44C49.60-3.60 49.42-3.75 49.22-3.87C49.02-3.99 48.81-4.10 48.59-4.20L47.47-4.68C47.31-4.74 47.16-4.81 47.00-4.89C46.85-4.97 46.71-5.05 46.58-5.15C46.46-5.25 46.35-5.37 46.28-5.50C46.20-5.63 46.16-5.80 46.16-5.99C46.16-6.35 46.30-6.63 46.57-6.83C46.83-7.04 47.19-7.14 47.63-7.14C48.00-7.14 48.33-7.07 48.62-6.94C48.91-6.81 49.18-6.63 49.42-6.40L49.96-7.04C49.68-7.33 49.34-7.57 48.94-7.75C48.54-7.93 48.10-8.02 47.63-8.02C47.27-8.02 46.94-7.96 46.64-7.86C46.34-7.76 46.08-7.61 45.86-7.42C45.64-7.23 45.47-7.01 45.34-6.76C45.22-6.50 45.16-6.22 45.16-5.93C45.16-5.64 45.20-5.39 45.30-5.17C45.40-4.95 45.52-4.76 45.67-4.60C45.82-4.44 46.00-4.30 46.19-4.19C46.38-4.08 46.57-3.98 46.75-3.90L47.88-3.41C48.06-3.32 48.24-3.24 48.40-3.16C48.56-3.08 48.69-2.99 48.81-2.89C48.93-2.79 49.02-2.67 49.09-2.53C49.15-2.39 49.19-2.22 49.19-2.02C49.19-1.63 49.04-1.32 48.76-1.09C48.47-0.85 48.06-0.73 47.54-0.73C47.14-0.73 46.74-0.82 46.36-1.00C45.98-1.18 45.65-1.42 45.37-1.72Z" transform="translate(-1.08, 8.016)"/></g></g></g></g><defs v-gra="od"/>
  </svg>
</svg>


