<svg xmlns="http://www.w3.org/2000/svg" xmlns:xlink="http://www.w3.org/1999/xlink" width="500" zoomAndPan="magnify" viewBox="0 0 375 374.999991" height="500" preserveAspectRatio="xMidYMid meet" version="1.0"><defs><g/><clipPath id="4a14754cf1"><path d="M 127.40625 73.011719 L 247.40625 73.011719 L 247.40625 193.011719 L 127.40625 193.011719 Z M 127.40625 73.011719 " clip-rule="nonzero"/></clipPath></defs><g clip-path="url(#4a14754cf1)"><path fill="#f64d45" d="M 200.960938 140.886719 L 247.082031 140.886719 C 247.414062 138.339844 247.582031 135.738281 247.582031 133.097656 C 247.582031 99.910156 220.683594 73.011719 187.496094 73.011719 C 154.308594 73.011719 127.40625 99.910156 127.40625 133.097656 C 127.40625 166.285156 154.308594 193.1875 187.496094 193.1875 C 212.394531 193.1875 233.761719 178.039062 242.878906 156.457031 L 225.398438 156.457031 C 217.558594 169.15625 203.515625 177.617188 187.496094 177.617188 C 162.90625 177.617188 142.976562 157.6875 142.976562 133.097656 C 142.976562 108.511719 162.90625 88.582031 187.496094 88.582031 C 209.425781 88.582031 227.652344 104.4375 231.335938 125.3125 L 194.609375 125.3125 L 197.03125 98.183594 L 161.339844 140.886719 L 180.707031 140.886719 L 178.285156 168.011719 Z M 200.960938 140.886719 " fill-opacity="1" fill-rule="nonzero"/></g><g fill="#f7931e" fill-opacity="1"><g transform="translate(50.246881, 240.808535)"><g><path d="M 10.015625 -24.296875 L 10.015625 -18.1875 L 19.859375 -18.1875 L 19.859375 -12.515625 L 10.015625 -12.515625 L 10.015625 -5.890625 L 21.15625 -5.890625 L 21.15625 0 L 2.671875 0 L 2.671875 -30.1875 L 21.15625 -30.1875 L 21.15625 -24.296875 Z M 10.015625 -24.296875 "/></g></g></g><g fill="#f7931e" fill-opacity="1"><g transform="translate(75.657815, 240.808535)"><g><path d="M 10.015625 -5.671875 L 19.65625 -5.671875 L 19.65625 0 L 2.671875 0 L 2.671875 -30.1875 L 10.015625 -30.1875 Z M 10.015625 -5.671875 "/></g></g></g><g fill="#f7931e" fill-opacity="1"><g transform="translate(98.316995, 240.808535)"><g><path d="M 10.015625 -24.296875 L 10.015625 -18.1875 L 19.859375 -18.1875 L 19.859375 -12.515625 L 10.015625 -12.515625 L 10.015625 -5.890625 L 21.15625 -5.890625 L 21.15625 0 L 2.671875 0 L 2.671875 -30.1875 L 21.15625 -30.1875 L 21.15625 -24.296875 Z M 10.015625 -24.296875 "/></g></g></g><g fill="#f7931e" fill-opacity="1"><g transform="translate(123.72793, 240.808535)"><g><path d="M 36.84375 -30.1875 L 36.84375 0 L 29.5 0 L 29.5 -18.109375 L 22.75 0 L 16.8125 0 L 10.015625 -18.140625 L 10.015625 0 L 2.671875 0 L 2.671875 -30.1875 L 11.359375 -30.1875 L 19.828125 -9.28125 L 28.203125 -30.1875 Z M 36.84375 -30.1875 "/></g></g></g><g fill="#f7931e" fill-opacity="1"><g transform="translate(165.348412, 240.808535)"><g><path d="M 10.015625 -24.296875 L 10.015625 -18.1875 L 19.859375 -18.1875 L 19.859375 -12.515625 L 10.015625 -12.515625 L 10.015625 -5.890625 L 21.15625 -5.890625 L 21.15625 0 L 2.671875 0 L 2.671875 -30.1875 L 21.15625 -30.1875 L 21.15625 -24.296875 Z M 10.015625 -24.296875 "/></g></g></g><g fill="#f7931e" fill-opacity="1"><g transform="translate(190.759352, 240.808535)"><g><path d="M 29.671875 0 L 22.3125 0 L 10.015625 -18.625 L 10.015625 0 L 2.671875 0 L 2.671875 -30.1875 L 10.015625 -30.1875 L 22.3125 -11.484375 L 22.3125 -30.1875 L 29.671875 -30.1875 Z M 29.671875 0 "/></g></g></g><g fill="#f7931e" fill-opacity="1"><g transform="translate(225.242482, 240.808535)"><g><path d="M 24.375 -30.1875 L 24.375 -24.296875 L 16.390625 -24.296875 L 16.390625 0 L 9.03125 0 L 9.03125 -24.296875 L 1.03125 -24.296875 L 1.03125 -30.1875 Z M 24.375 -30.1875 "/></g></g></g><g fill="#f7931e" fill-opacity="1"><g transform="translate(252.803218, 240.808535)"><g><path d="M 9.890625 -30.1875 L 9.890625 -12.125 C 9.890625 -10.320312 10.332031 -8.929688 11.21875 -7.953125 C 12.113281 -6.984375 13.421875 -6.5 15.140625 -6.5 C 16.859375 -6.5 18.175781 -6.984375 19.09375 -7.953125 C 20.007812 -8.929688 20.46875 -10.320312 20.46875 -12.125 L 20.46875 -30.1875 L 27.828125 -30.1875 L 27.828125 -12.171875 C 27.828125 -9.472656 27.25 -7.191406 26.09375 -5.328125 C 24.945312 -3.460938 23.40625 -2.054688 21.46875 -1.109375 C 19.539062 -0.171875 17.382812 0.296875 15 0.296875 C 12.625 0.296875 10.5 -0.164062 8.625 -1.09375 C 6.75 -2.03125 5.265625 -3.4375 4.171875 -5.3125 C 3.078125 -7.1875 2.53125 -9.472656 2.53125 -12.171875 L 2.53125 -30.1875 Z M 9.890625 -30.1875 "/></g></g></g><g fill="#f7931e" fill-opacity="1"><g transform="translate(285.265526, 240.808535)"><g><path d="M 36.84375 -30.1875 L 36.84375 0 L 29.5 0 L 29.5 -18.109375 L 22.75 0 L 16.8125 0 L 10.015625 -18.140625 L 10.015625 0 L 2.671875 0 L 2.671875 -30.1875 L 11.359375 -30.1875 L 19.828125 -9.28125 L 28.203125 -30.1875 Z M 36.84375 -30.1875 "/></g></g></g><g fill="#f7931e" fill-opacity="1"><g transform="translate(124.853903, 271.908527)"><g><path d="M 3.96875 -12.65625 L 3.96875 -8.375 L 9.015625 -8.375 L 9.015625 -6.421875 L 3.96875 -6.421875 L 3.96875 -1.953125 L 9.640625 -1.953125 L 9.640625 0 L 1.578125 0 L 1.578125 -14.609375 L 9.640625 -14.609375 L 9.640625 -12.65625 Z M 3.96875 -12.65625 "/></g></g></g><g fill="#f7931e" fill-opacity="1"><g transform="translate(140.057945, 271.908527)"><g><path d="M 13.5625 0 L 11.171875 0 L 3.96875 -10.90625 L 3.96875 0 L 1.578125 0 L 1.578125 -14.609375 L 3.96875 -14.609375 L 11.171875 -3.734375 L 11.171875 -14.609375 L 13.5625 -14.609375 Z M 13.5625 0 "/></g></g></g><g fill="#f7931e" fill-opacity="1"><g transform="translate(159.399004, 271.908527)"><g><path d="M 3.96875 -12.65625 L 3.96875 -8.375 L 9.015625 -8.375 L 9.015625 -6.421875 L 3.96875 -6.421875 L 3.96875 -1.953125 L 9.640625 -1.953125 L 9.640625 0 L 1.578125 0 L 1.578125 -14.609375 L 9.640625 -14.609375 L 9.640625 -12.65625 Z M 3.96875 -12.65625 "/></g></g></g><g fill="#f7931e" fill-opacity="1"><g transform="translate(174.603048, 271.908527)"><g><path d="M 9.15625 0 L 5.796875 -5.84375 L 3.96875 -5.84375 L 3.96875 0 L 1.578125 0 L 1.578125 -14.59375 L 6.609375 -14.59375 C 7.734375 -14.59375 8.679688 -14.394531 9.453125 -14 C 10.234375 -13.613281 10.816406 -13.085938 11.203125 -12.421875 C 11.585938 -11.765625 11.78125 -11.035156 11.78125 -10.234375 C 11.78125 -9.273438 11.503906 -8.40625 10.953125 -7.625 C 10.398438 -6.851562 9.550781 -6.328125 8.40625 -6.046875 L 12.015625 0 Z M 3.96875 -7.75 L 6.609375 -7.75 C 7.503906 -7.75 8.179688 -7.972656 8.640625 -8.421875 C 9.097656 -8.867188 9.328125 -9.472656 9.328125 -10.234375 C 9.328125 -10.984375 9.101562 -11.570312 8.65625 -12 C 8.207031 -12.425781 7.523438 -12.640625 6.609375 -12.640625 L 3.96875 -12.640625 Z M 3.96875 -7.75 "/></g></g></g><g fill="#f7931e" fill-opacity="1"><g transform="translate(192.075102, 271.908527)"><g><path d="M 12.140625 -10.390625 C 11.765625 -11.117188 11.238281 -11.664062 10.5625 -12.03125 C 9.894531 -12.40625 9.117188 -12.59375 8.234375 -12.59375 C 7.265625 -12.59375 6.398438 -12.375 5.640625 -11.9375 C 4.890625 -11.507812 4.300781 -10.894531 3.875 -10.09375 C 3.445312 -9.300781 3.234375 -8.378906 3.234375 -7.328125 C 3.234375 -6.273438 3.445312 -5.347656 3.875 -4.546875 C 4.300781 -3.742188 4.890625 -3.125 5.640625 -2.6875 C 6.398438 -2.25 7.265625 -2.03125 8.234375 -2.03125 C 9.535156 -2.03125 10.59375 -2.394531 11.40625 -3.125 C 12.21875 -3.851562 12.710938 -4.84375 12.890625 -6.09375 L 7.40625 -6.09375 L 7.40625 -8 L 15.453125 -8 L 15.453125 -6.125 C 15.296875 -5 14.890625 -3.957031 14.234375 -3 C 13.585938 -2.050781 12.742188 -1.289062 11.703125 -0.71875 C 10.660156 -0.15625 9.503906 0.125 8.234375 0.125 C 6.859375 0.125 5.601562 -0.191406 4.46875 -0.828125 C 3.332031 -1.460938 2.429688 -2.347656 1.765625 -3.484375 C 1.109375 -4.617188 0.78125 -5.898438 0.78125 -7.328125 C 0.78125 -8.753906 1.109375 -10.035156 1.765625 -11.171875 C 2.429688 -12.304688 3.332031 -13.191406 4.46875 -13.828125 C 5.613281 -14.460938 6.867188 -14.78125 8.234375 -14.78125 C 9.785156 -14.78125 11.164062 -14.398438 12.375 -13.640625 C 13.59375 -12.878906 14.472656 -11.796875 15.015625 -10.390625 Z M 12.140625 -10.390625 "/></g></g></g><g fill="#f7931e" fill-opacity="1"><g transform="translate(212.508166, 271.908527)"><g><path d="M 3.96875 -14.59375 L 3.96875 0 L 1.578125 0 L 1.578125 -14.59375 Z M 3.96875 -14.59375 "/></g></g></g><g fill="#f7931e" fill-opacity="1"><g transform="translate(222.252192, 271.908527)"><g><path d="M 3.96875 -12.65625 L 3.96875 -8.375 L 9.015625 -8.375 L 9.015625 -6.421875 L 3.96875 -6.421875 L 3.96875 -1.953125 L 9.640625 -1.953125 L 9.640625 0 L 1.578125 0 L 1.578125 -14.609375 L 9.640625 -14.609375 L 9.640625 -12.65625 Z M 3.96875 -12.65625 "/></g></g></g><g fill="#f7931e" fill-opacity="1"><g transform="translate(237.456239, 271.908527)"><g><path d="M 6.390625 0.140625 C 5.398438 0.140625 4.515625 -0.0234375 3.734375 -0.359375 C 2.953125 -0.703125 2.335938 -1.1875 1.890625 -1.8125 C 1.441406 -2.445312 1.21875 -3.1875 1.21875 -4.03125 L 3.78125 -4.03125 C 3.832031 -3.40625 4.078125 -2.890625 4.515625 -2.484375 C 4.960938 -2.078125 5.585938 -1.875 6.390625 -1.875 C 7.210938 -1.875 7.851562 -2.070312 8.3125 -2.46875 C 8.78125 -2.863281 9.015625 -3.378906 9.015625 -4.015625 C 9.015625 -4.503906 8.867188 -4.898438 8.578125 -5.203125 C 8.285156 -5.515625 7.925781 -5.753906 7.5 -5.921875 C 7.070312 -6.085938 6.484375 -6.269531 5.734375 -6.46875 C 4.785156 -6.71875 4.007812 -6.972656 3.40625 -7.234375 C 2.8125 -7.492188 2.304688 -7.894531 1.890625 -8.4375 C 1.472656 -8.988281 1.265625 -9.71875 1.265625 -10.625 C 1.265625 -11.46875 1.472656 -12.203125 1.890625 -12.828125 C 2.304688 -13.460938 2.890625 -13.945312 3.640625 -14.28125 C 4.398438 -14.613281 5.28125 -14.78125 6.28125 -14.78125 C 7.695312 -14.78125 8.851562 -14.425781 9.75 -13.71875 C 10.65625 -13.007812 11.15625 -12.039062 11.25 -10.8125 L 8.609375 -10.8125 C 8.566406 -11.34375 8.3125 -11.796875 7.84375 -12.171875 C 7.382812 -12.554688 6.78125 -12.75 6.03125 -12.75 C 5.34375 -12.75 4.78125 -12.570312 4.34375 -12.21875 C 3.914062 -11.875 3.703125 -11.367188 3.703125 -10.703125 C 3.703125 -10.253906 3.835938 -9.882812 4.109375 -9.59375 C 4.378906 -9.3125 4.722656 -9.085938 5.140625 -8.921875 C 5.566406 -8.753906 6.140625 -8.570312 6.859375 -8.375 C 7.828125 -8.113281 8.613281 -7.847656 9.21875 -7.578125 C 9.832031 -7.316406 10.351562 -6.90625 10.78125 -6.34375 C 11.207031 -5.789062 11.421875 -5.054688 11.421875 -4.140625 C 11.421875 -3.398438 11.222656 -2.695312 10.828125 -2.03125 C 10.429688 -1.375 9.847656 -0.847656 9.078125 -0.453125 C 8.316406 -0.0546875 7.421875 0.140625 6.390625 0.140625 Z M 6.390625 0.140625 "/></g></g></g></svg>