<?xml version="1.0" standalone="no"?>
<!DOCTYPE svg PUBLIC "-//W3C//DTD SVG 20010904//EN"
 "http://www.w3.org/TR/2001/REC-SVG-20010904/DTD/svg10.dtd">
<svg version="1.0" xmlns="http://www.w3.org/2000/svg"
 width="577.000000pt" height="433.000000pt" viewBox="0 0 577.000000 433.000000"
 preserveAspectRatio="xMidYMid meet">

<g transform="translate(0.000000,433.000000) scale(0.100000,-0.100000)"
fill="#000000" stroke="none">
<path d="M1402 2490 c-40 -17 -93 -64 -113 -102 -24 -47 -24 -48 4 -48 16 1
28 13 43 43 25 52 70 76 142 77 76 0 136 -30 156 -81 11 -27 22 -39 36 -39 24
0 24 0 4 49 -16 40 -63 80 -117 100 -34 13 -123 13 -155 1z"/>
<path d="M1759 2458 c-1 -20 -1 -253 1 -341 0 -26 3 -28 33 -25 l32 3 0 190 0
190 -32 3 c-28 3 -33 0 -34 -20z"/>
<path d="M3490 2415 c0 -24 -5 -35 -15 -35 -10 0 -15 -10 -15 -30 0 -20 5 -30
15 -30 12 0 15 -15 15 -74 0 -96 13 -132 52 -145 17 -6 42 -11 54 -11 20 0 24
5 24 29 0 24 -5 30 -30 35 l-30 6 0 80 0 80 30 0 c27 0 30 3 30 30 0 27 -3 30
-30 30 -28 0 -30 3 -30 35 0 33 -2 35 -35 35 -33 0 -35 -2 -35 -35z"/>
<path d="M1983 2379 c-86 -25 -122 -157 -62 -233 40 -51 120 -72 172 -45 33
17 67 51 67 66 0 19 -76 18 -84 -2 -10 -26 -71 -19 -95 11 -12 15 -21 31 -21
35 0 5 47 9 105 9 123 0 129 5 99 78 -31 74 -99 105 -181 81z m97 -69 c38 -38
27 -50 -45 -50 -58 0 -65 2 -65 19 0 24 36 51 67 51 13 0 32 -9 43 -20z"/>
<path d="M2337 2371 c-29 -15 -37 -16 -37 -5 0 18 -56 19 -62 2 -2 -7 -4 -71
-3 -143 l0 -130 33 -3 32 -3 0 93 c0 114 12 138 69 138 21 0 43 -6 49 -13 6
-7 13 -58 14 -113 l3 -99 32 -3 31 -3 4 100 c2 75 7 104 19 116 19 19 75 23
92 6 7 -7 14 -54 17 -114 l5 -102 35 0 35 0 0 106 c-1 121 -13 151 -72 175
-41 17 -81 11 -117 -17 -25 -19 -25 -19 -62 6 -44 30 -68 31 -117 6z"/>
<path d="M2853 2371 c-49 -23 -63 -45 -70 -114 -10 -102 44 -167 139 -167 42
0 52 5 90 42 l43 43 -38 3 c-24 2 -43 -2 -53 -12 -34 -35 -114 -9 -114 37 0
15 14 17 105 17 l105 0 0 25 c0 104 -110 171 -207 126z m105 -57 c12 -8 22
-24 22 -35 0 -17 -7 -19 -65 -19 -58 0 -65 2 -65 19 0 23 36 51 65 51 11 0 31
-7 43 -16z"/>
<path d="M3218 2372 c-30 -16 -38 -17 -38 -6 0 9 -11 14 -30 14 l-30 0 0 -145
0 -145 30 0 30 0 0 94 c0 104 11 130 62 142 21 4 33 0 52 -20 24 -23 26 -32
26 -121 l0 -95 30 0 c17 0 30 5 31 10 0 6 0 44 0 85 0 41 0 88 0 105 -1 18
-12 42 -28 60 -37 40 -85 48 -135 22z"/>
<path d="M4137 2371 c-29 -15 -37 -16 -37 -5 0 9 -12 14 -35 14 l-36 0 3 -142
3 -143 33 -3 32 -3 0 99 c0 112 13 136 71 134 52 -1 58 -14 61 -125 l3 -102
33 -3 32 -3 0 94 c0 77 3 99 18 118 21 25 74 31 95 10 7 -7 14 -54 17 -114 l5
-102 35 0 35 0 -1 107 c-1 122 -12 150 -71 174 -43 18 -83 11 -122 -22 -24
-20 -30 -22 -35 -9 -6 16 -64 45 -89 45 -7 0 -29 -9 -50 -19z"/>
<path d="M3690 2293 c0 -146 22 -190 99 -200 28 -4 48 -1 65 11 31 20 36 20
36 1 0 -10 11 -15 35 -15 l35 0 0 145 0 145 -35 0 -35 0 0 -93 c0 -107 -13
-137 -60 -137 -54 0 -70 31 -70 137 l0 93 -35 0 -35 0 0 -87z"/>
<path d="M1270 2280 c0 -19 7 -20 210 -20 203 0 210 1 210 20 0 19 -7 20 -210
20 -203 0 -210 -1 -210 -20z"/>
<path d="M1270 2225 c0 -19 44 -87 74 -113 41 -35 100 -48 178 -38 57 8 82 18
115 49 17 15 20 24 12 33 -9 11 -18 8 -47 -11 -49 -32 -112 -45 -163 -34 -55
13 -81 32 -108 79 -14 25 -29 40 -42 40 -10 0 -19 -2 -19 -5z"/>
<path d="M2470 1895 l0 -65 43 1 42 2 -35 6 c-26 4 -36 12 -38 29 -3 18 2 22
25 23 28 1 28 1 3 8 -37 10 -33 44 5 52 29 6 29 7 -7 8 l-38 1 0 -65z"/>
<path d="M2582 1893 l1 -68 6 53 6 52 28 -50 c16 -27 32 -50 38 -50 5 0 9 29
9 65 0 37 -4 65 -10 65 -5 0 -10 -21 -10 -46 l0 -47 -19 24 c-10 13 -21 34
-25 47 -14 43 -26 21 -24 -45z"/>
<path d="M2710 1895 l0 -65 43 1 42 2 -35 6 c-26 4 -36 12 -38 29 -3 18 2 22
25 23 28 1 28 1 3 8 -40 11 -33 45 10 52 l35 6 -42 2 -43 1 0 -65z"/>
<path d="M2810 1895 c0 -37 4 -65 10 -65 6 0 10 14 10 30 0 38 13 38 40 -1 25
-34 38 -33 20 1 -9 16 -9 25 -1 33 16 16 13 54 -5 61 -9 3 -29 6 -45 6 l-29 0
0 -65z m70 40 c16 -19 4 -35 -26 -35 -19 0 -24 5 -24 25 0 29 29 35 50 10z"/>
<path d="M2947 1942 c-38 -42 -7 -118 45 -110 18 2 24 10 26 36 3 28 0 32 -20
31 -17 -1 -18 -3 -5 -6 21 -6 23 -42 1 -50 -21 -8 -46 20 -46 51 0 37 20 59
50 51 15 -4 21 -2 17 5 -10 16 -50 12 -68 -8z"/>
<path d="M3060 1894 c0 -41 4 -63 10 -59 6 3 10 33 10 66 0 33 -4 59 -10 59
-6 0 -10 -29 -10 -66z"/>
<path d="M3114 1946 c-3 -7 -4 -35 -2 -62 l3 -49 40 -2 c35 -1 36 -1 10 5 -39
9 -48 48 -13 55 l23 4 -23 2 c-37 2 -26 44 13 52 29 6 29 7 -8 8 -24 1 -40 -4
-43 -13z"/>
<path d="M3227 1953 c-12 -11 -7 -53 6 -53 7 0 23 -7 35 -16 32 -22 11 -47
-32 -39 -25 5 -28 4 -13 -5 10 -6 30 -10 45 -8 23 3 27 8 27 33 0 23 -5 31
-22 33 -12 2 -27 9 -33 17 -18 22 -2 37 32 30 21 -5 28 -4 24 4 -8 12 -58 15
-69 4z"/>
<path d="M1612 1893 c147 -2 390 -2 540 0 150 1 30 2 -267 2 -297 0 -420 -1
-273 -2z"/>
<path d="M3612 1893 c147 -2 390 -2 540 0 150 1 30 2 -267 2 -297 0 -420 -1
-273 -2z"/>
</g>
</svg>
